<?xml version="1.0" standalone="no"?>
<!DOCTYPE svg PUBLIC "-//W3C//DTD SVG 20010904//EN"
 "http://www.w3.org/TR/2001/REC-SVG-20010904/DTD/svg10.dtd">
<svg version="1.0" xmlns="http://www.w3.org/2000/svg"
 width="4000.000000pt" height="1367.000000pt" viewBox="0 0 4000.000000 1367.000000"
 preserveAspectRatio="xMidYMid meet">

<g transform="translate(0.000000,1367.000000) scale(0.100000,-0.100000)"
fill="#000000" stroke="none">
<path d="M27611 10520 c-317 -35 -526 -219 -598 -525 -8 -36 -16 -149 -20
-282 l-6 -223 -219 0 -219 0 3 -137 3 -138 95 -2 c52 0 150 -2 218 -2 l122 -1
0 -1085 0 -1085 170 0 170 0 0 1085 0 1085 370 0 370 0 0 140 0 140 -375 0
-375 0 0 198 c0 269 21 353 111 443 142 142 474 153 647 22 18 -14 35 -23 37
-21 2 2 28 57 58 123 l54 120 -43 31 c-130 93 -356 138 -573 114z"/>
<path d="M16440 8775 l0 -1735 165 0 165 0 0 1735 0 1735 -165 0 -165 0 0
-1735z"/>
<path d="M25680 9769 l0 -741 -44 59 c-169 224 -385 354 -681 409 -134 24
-393 15 -530 -20 -356 -90 -613 -294 -770 -611 -91 -184 -135 -379 -135 -601
0 -233 46 -423 151 -624 63 -121 128 -207 222 -297 228 -217 506 -323 841
-324 161 0 233 9 362 46 212 61 420 205 537 373 l52 74 3 -236 2 -236 160 0
160 0 0 1735 0 1735 -165 0 -165 0 0 -741z m-720 -564 c181 -35 317 -106 451
-237 183 -177 269 -402 269 -703 0 -291 -79 -500 -259 -689 -109 -114 -246
-194 -406 -238 -67 -18 -107 -22 -245 -22 -186 0 -263 15 -397 78 -248 118
-426 346 -491 631 -12 50 -17 120 -17 245 0 152 3 187 24 265 81 310 284 536
575 642 119 43 353 56 496 28z"/>
<path d="M4908 9246 l-1988 -1051 0 -1520 0 -1520 2347 -1020 c1291 -561 2448
-1064 2570 -1117 l223 -97 -2 1520 -3 1520 -965 420 c-531 231 -1572 684
-2315 1006 -742 323 -1353 589 -1357 592 -4 3 548 299 1225 658 678 359 1462
774 1742 922 l510 271 2442 -1063 c1343 -584 2439 -1065 2435 -1069 -4 -3
-734 -391 -1622 -861 l-1615 -855 -3 -1517 c-2 -1442 -1 -1517 15 -1510 10 3
852 448 1871 987 l1852 981 -2 1519 -3 1520 -2625 1142 c-1444 628 -2652 1153
-2685 1167 l-60 26 -1987 -1051z m5745 -3376 c64 -24 145 -97 176 -159 95
-185 -1 -412 -199 -472 -319 -97 -567 277 -355 535 25 31 60 57 107 81 62 30
80 35 144 35 49 0 91 -7 127 -20z"/>
<path d="M14605 9494 c-502 -91 -869 -439 -980 -931 -22 -94 -31 -378 -16
-484 48 -335 212 -621 465 -811 45 -33 135 -86 201 -119 203 -99 387 -136 643
-126 330 12 586 117 777 319 69 72 132 155 124 162 -2 2 -57 40 -123 85 l-119
80 -27 -37 c-43 -60 -154 -158 -227 -201 -243 -143 -604 -159 -868 -37 -247
114 -420 322 -492 593 -24 88 -26 117 -27 278 0 154 3 193 22 269 87 346 342
596 687 674 46 10 119 16 215 15 124 0 159 -3 241 -25 190 -51 353 -159 456
-303 l21 -30 117 79 c63 44 118 82 120 86 15 24 -164 225 -257 288 -119 81
-293 149 -455 177 -110 19 -388 19 -498 -1z"/>
<path d="M18445 9494 c-470 -88 -837 -423 -950 -868 -70 -275 -54 -599 42
-841 154 -390 487 -664 908 -746 107 -21 418 -19 525 4 511 109 865 472 957
981 22 122 22 370 0 492 -88 487 -416 840 -892 961 -88 22 -125 26 -305 29
-152 2 -226 -1 -285 -12z m493 -294 c332 -81 580 -345 653 -695 24 -115 26
-336 4 -452 -56 -294 -230 -529 -480 -649 -148 -72 -222 -87 -415 -87 -186 0
-265 15 -397 77 -209 99 -375 282 -454 497 -92 252 -88 550 12 792 68 163 215
333 366 422 85 49 224 99 325 114 93 15 289 5 386 -19z"/>
<path d="M28964 9494 c-295 -49 -523 -193 -624 -394 -50 -99 -64 -164 -64
-290 1 -194 40 -296 159 -415 142 -143 304 -201 785 -285 463 -81 606 -158
641 -346 28 -151 -54 -304 -204 -381 -156 -79 -494 -100 -754 -47 -168 34
-379 118 -510 203 l-62 40 -71 -123 c-38 -68 -70 -128 -70 -134 0 -16 129 -98
222 -141 254 -119 522 -169 843 -158 264 9 410 43 590 135 70 36 108 64 170
127 127 127 175 246 175 432 0 167 -29 262 -113 365 -121 147 -346 236 -806
318 -297 53 -429 93 -532 162 -108 72 -144 147 -137 285 4 98 32 158 104 229
61 60 128 95 239 126 110 30 444 33 575 5 134 -29 263 -76 357 -129 47 -27 89
-46 93 -41 5 4 38 62 74 128 74 137 77 123 -34 180 -129 65 -312 121 -496 149
-126 20 -434 20 -550 0z"/>
<path d="M20610 8698 c0 -859 2 -896 55 -1055 106 -315 334 -515 678 -596 78
-18 122 -21 292 -21 184 0 208 2 296 26 107 29 216 76 302 131 77 50 194 163
242 236 22 33 43 61 48 61 4 0 7 -99 7 -220 l0 -220 155 0 155 0 0 1225 0
1225 -165 0 -164 0 -4 -742 c-3 -726 -4 -745 -25 -825 -46 -175 -113 -293
-225 -400 -165 -156 -422 -232 -689 -203 -373 41 -584 258 -628 645 -6 53 -10
388 -10 808 l0 717 -160 0 -160 0 0 -792z"/>
<path d="M6335 8773 c-682 -377 -1242 -687 -1243 -689 -3 -2 295 -692 302
-701 1 -1 94 49 206 111 734 405 2276 1259 2278 1262 3 2 -279 660 -296 691
-5 8 -419 -216 -1247 -674z"/>
<path d="M7398 8226 c-670 -370 -1227 -680 -1239 -688 l-23 -14 148 -340 c82
-186 152 -343 156 -347 8 -9 2492 1361 2486 1372 -1 3 -70 160 -151 349 -82
188 -151 342 -155 341 -3 0 -553 -303 -1222 -673z"/>
<path d="M8560 7735 c-679 -377 -1239 -686 -1243 -687 -4 -2 61 -162 145 -355
l152 -352 51 27 c368 200 2435 1349 2435 1354 0 7 -285 660 -298 684 -5 9
-369 -188 -1242 -671z"/>
<path d="M28235 4961 c-76 -19 -144 -79 -171 -151 -9 -25 -18 -87 -21 -137
l-6 -93 -78 0 -79 0 0 -50 0 -50 80 0 80 0 2 -407 3 -408 63 -3 62 -3 0 411 0
410 140 0 140 0 0 50 0 50 -140 0 -140 0 0 90 c0 104 13 140 63 170 40 25 144
27 188 4 40 -20 54 -14 69 32 12 34 11 39 -9 55 -40 33 -170 48 -246 30z"/>
<path d="M19410 4310 l0 -651 63 3 62 3 3 648 2 647 -65 0 -65 0 0 -650z"/>
<path d="M22880 4689 l0 -271 -64 60 c-89 83 -148 105 -286 106 -123 1 -178
-14 -270 -76 -69 -45 -129 -123 -161 -207 -27 -71 -37 -217 -19 -292 55 -240
274 -388 517 -351 94 15 177 58 238 123 l45 48 0 -84 0 -85 60 0 60 0 0 650 0
650 -60 0 -60 0 0 -271z m-188 -243 c106 -50 175 -158 185 -289 10 -139 -46
-271 -143 -336 -64 -42 -114 -55 -206 -55 -66 1 -86 5 -142 33 -103 51 -165
138 -185 259 -30 188 64 352 234 409 64 21 189 11 257 -21z"/>
<path d="M28622 4940 c-47 -44 -39 -114 16 -142 91 -45 178 67 107 137 -31 32
-91 34 -123 5z"/>
<path d="M29090 4310 l0 -650 60 0 60 0 0 650 0 650 -60 0 -60 0 0 -650z"/>
<path d="M13830 4881 c0 -4 108 -185 240 -401 l240 -392 0 -214 0 -214 65 0
65 0 0 213 0 213 240 393 c132 215 240 396 240 401 0 6 -27 10 -59 10 l-59 0
-188 -307 c-217 -357 -227 -373 -235 -373 -3 0 -99 153 -213 340 l-207 340
-65 0 c-35 0 -64 -4 -64 -9z"/>
<path d="M33278 4683 l-3 -98 -82 -3 -83 -3 0 -49 0 -49 83 -3 82 -3 5 -331 5
-331 30 -49 c22 -35 46 -57 85 -79 49 -26 65 -29 140 -29 67 0 95 4 135 22 27
13 52 28 56 34 6 10 -25 88 -35 88 -1 0 -18 -8 -37 -17 -50 -26 -159 -25 -196
3 -61 44 -63 59 -63 392 l0 302 140 0 140 0 0 50 0 50 -140 0 -140 0 0 100 0
100 -60 0 -59 0 -3 -97z"/>
<path d="M15255 4577 c-161 -41 -284 -161 -330 -321 -13 -45 -16 -84 -13 -162
4 -91 8 -109 41 -178 167 -351 685 -351 849 1 28 60 32 80 36 179 4 94 1 124
-17 182 -39 131 -155 248 -285 288 -68 21 -218 27 -281 11z m277 -131 c270
-129 238 -584 -46 -668 -23 -7 -76 -12 -118 -12 -178 1 -309 126 -333 315 -13
107 24 219 99 297 72 76 144 103 261 99 62 -3 93 -10 137 -31z"/>
<path d="M17634 4580 c-90 -18 -159 -59 -205 -123 l-29 -40 0 81 0 82 -60 0
-60 0 0 -460 0 -460 59 0 59 0 4 288 c6 336 10 355 93 439 57 56 122 83 202
83 l43 0 0 60 0 60 -32 -1 c-18 -1 -51 -5 -74 -9z"/>
<path d="M18693 4575 c-216 -58 -343 -227 -343 -455 0 -151 57 -278 164 -363
183 -145 465 -139 618 14 27 27 48 52 48 57 0 4 -20 22 -44 39 l-44 31 -42
-43 c-63 -64 -126 -89 -230 -89 -98 0 -169 26 -237 87 -180 163 -132 493 87
596 47 22 69 26 150 26 84 0 102 -3 152 -28 31 -15 71 -44 88 -63 17 -20 34
-34 38 -32 19 8 82 54 82 59 0 3 -18 27 -41 52 -92 105 -289 154 -446 112z"/>
<path d="M20151 4579 c-76 -15 -168 -65 -227 -123 -169 -170 -176 -477 -15
-650 103 -110 194 -148 351 -149 83 0 117 4 165 21 177 64 290 217 302 407 22
329 -246 559 -576 494z m251 -126 c65 -30 133 -95 165 -162 25 -51 28 -66 28
-166 0 -104 -2 -114 -33 -177 -37 -76 -83 -120 -162 -157 -79 -36 -201 -36
-281 1 -120 55 -188 159 -196 302 -12 182 74 321 229 372 62 20 191 13 250
-13z"/>
<path d="M24361 4575 c-69 -16 -172 -61 -210 -92 l-24 -19 28 -42 c15 -23 29
-42 30 -42 1 0 28 15 59 34 144 86 369 86 448 -1 34 -37 58 -107 58 -170 l0
-61 -218 -4 -217 -3 -68 -33 c-81 -40 -121 -89 -137 -167 -27 -129 40 -246
168 -296 46 -18 77 -23 162 -23 128 0 199 24 266 88 24 24 46 40 49 38 3 -3 5
-32 5 -64 l0 -58 55 0 55 0 0 333 c0 362 -4 393 -55 467 -30 43 -87 84 -148
107 -60 21 -228 26 -306 8z m389 -568 c0 -76 -3 -88 -30 -129 -58 -87 -170
-135 -292 -125 -126 11 -198 73 -198 171 0 85 48 138 140 157 19 4 113 7 208
8 l172 1 0 -83z"/>
<path d="M25347 4575 c-67 -17 -103 -34 -146 -71 -96 -80 -106 -245 -21 -333
48 -49 118 -76 280 -107 210 -40 256 -67 254 -152 -1 -92 -63 -138 -201 -149
-119 -9 -209 14 -365 95 -3 2 -19 -18 -34 -44 -27 -46 -27 -47 -8 -62 31 -24
135 -68 194 -83 78 -19 262 -17 330 4 76 23 144 68 177 118 25 38 28 52 28
124 0 72 -3 86 -27 122 -40 61 -121 97 -299 132 -213 42 -259 71 -259 164 0
95 60 138 204 145 100 5 178 -9 248 -44 26 -13 49 -24 52 -24 2 0 16 21 30 46
25 44 25 47 9 60 -10 7 -54 25 -98 40 -100 33 -258 42 -348 19z"/>
<path d="M26711 4575 c-69 -15 -171 -60 -211 -92 l-24 -21 27 -41 c15 -22 29
-41 32 -41 2 0 25 13 51 30 80 50 137 65 254 65 93 0 110 -3 150 -25 73 -41
110 -113 110 -217 l0 -51 -218 -4 -217 -3 -68 -33 c-75 -37 -112 -78 -133
-148 -18 -60 -18 -88 2 -153 20 -68 83 -131 162 -162 46 -18 76 -23 162 -22
128 0 195 22 264 87 25 23 46 40 47 37 0 -3 1 -31 2 -61 l2 -55 58 -3 57 -3 0
338 c-1 368 -5 402 -60 470 -85 105 -264 148 -449 108z m389 -569 c0 -80 -2
-87 -32 -127 -49 -63 -96 -96 -163 -114 -70 -18 -116 -19 -183 -4 -189 40
-196 282 -10 318 24 5 121 9 216 10 l172 1 0 -84z"/>
<path d="M29805 4576 c-277 -67 -418 -401 -285 -673 53 -107 140 -182 262
-224 88 -31 257 -31 340 -1 61 22 129 65 165 103 l21 24 -33 39 -34 38 -42
-36 c-66 -56 -137 -79 -244 -79 -111 0 -182 25 -253 88 -49 44 -92 122 -107
193 l-7 32 385 0 c444 0 401 -13 386 116 -30 274 -282 446 -554 380z m238
-116 c29 -11 72 -36 95 -55 43 -37 96 -133 106 -192 l6 -33 -330 0 -329 0 5
33 c10 59 63 155 106 192 87 74 229 97 341 55z"/>
<path d="M30773 4580 c-110 -22 -206 -94 -233 -174 -7 -21 -10 -68 -8 -106 3
-59 8 -75 34 -107 51 -63 117 -91 300 -128 219 -45 254 -66 254 -159 0 -87
-67 -133 -205 -143 -103 -6 -203 14 -297 62 -38 20 -71 35 -72 33 -26 -37 -47
-82 -42 -93 3 -8 32 -28 64 -44 201 -101 494 -88 610 28 43 43 62 82 69 139
11 101 -39 186 -135 229 -29 12 -110 34 -180 48 -175 35 -216 50 -252 91 -56
64 -31 153 55 198 34 18 58 21 160 21 123 0 130 -2 260 -61 11 -5 55 64 55 85
0 19 -101 60 -185 76 -82 16 -185 18 -252 5z"/>
<path d="M32535 4576 c-150 -37 -229 -126 -228 -256 0 -78 17 -115 75 -164 50
-43 119 -66 284 -96 66 -11 138 -30 162 -41 70 -34 93 -110 52 -177 -60 -98
-304 -108 -480 -20 -36 18 -68 34 -72 36 -4 2 -18 -19 -32 -47 l-26 -49 43
-25 c193 -112 496 -112 626 -1 76 66 104 154 77 248 -30 102 -103 142 -349
191 -193 38 -237 67 -237 156 0 54 29 98 84 126 76 40 295 24 384 -28 18 -10
36 -19 41 -19 6 0 51 83 51 96 0 3 -24 16 -54 29 -114 50 -290 68 -401 41z"/>
<path d="M34175 4576 c-277 -67 -418 -401 -285 -673 53 -107 140 -182 262
-224 88 -31 257 -31 340 -1 61 22 129 65 165 103 l21 24 -33 39 -34 38 -42
-36 c-66 -56 -137 -79 -244 -79 -111 0 -182 25 -253 88 -49 44 -92 122 -107
193 l-7 32 385 0 c444 0 401 -13 386 116 -30 274 -282 446 -554 380z m238
-116 c29 -11 72 -36 95 -55 43 -37 96 -133 106 -192 l6 -33 -330 0 -329 0 5
33 c10 59 63 155 106 192 87 74 229 97 341 55z"/>
<path d="M35335 4577 c-87 -23 -156 -68 -202 -130 l-23 -31 0 82 0 82 -60 0
-60 0 0 -460 0 -461 63 3 62 3 5 300 c5 280 6 303 27 347 47 101 144 160 268
162 127 2 199 -37 243 -132 l27 -57 3 -313 3 -313 60 3 59 3 3 285 c2 262 4
289 23 336 44 109 109 163 221 184 135 27 244 -19 298 -125 l30 -59 3 -313 3
-313 60 0 59 0 0 314 c0 355 -7 400 -75 489 -133 174 -455 168 -614 -10 l-48
-54 -12 29 c-18 44 -79 98 -145 128 -70 32 -200 42 -281 21z"/>
<path d="M16090 4292 c0 -165 5 -314 11 -348 15 -82 63 -169 117 -210 74 -56
142 -77 257 -77 129 -1 191 22 275 100 l60 55 0 -76 0 -76 60 0 60 0 0 460 0
461 -62 -3 -63 -3 -5 -300 c-5 -290 -6 -302 -29 -348 -44 -90 -113 -139 -220
-156 -114 -18 -231 19 -282 90 -44 62 -49 104 -49 421 l0 298 -65 0 -65 0 0
-288z"/>
<path d="M20970 4308 c0 -150 5 -304 10 -341 26 -181 144 -292 330 -312 128
-14 253 27 335 110 24 24 46 41 49 37 3 -3 6 -36 6 -74 l0 -68 55 0 55 0 0
460 0 460 -59 0 -60 0 -3 -293 -3 -292 -33 -67 c-54 -111 -136 -159 -270 -160
-99 -1 -149 16 -203 71 -74 73 -79 101 -79 448 l0 293 -65 0 -65 0 0 -272z"/>
<path d="M28620 4120 l0 -460 60 0 60 0 0 460 0 460 -60 0 -60 0 0 -460z"/>
<path d="M31293 4568 c3 -7 58 -130 122 -273 65 -143 155 -345 201 -448 l84
-188 -36 -72 c-50 -99 -70 -124 -114 -147 -66 -33 -169 -21 -222 26 -23 22
-34 16 -63 -32 l-25 -42 38 -24 c106 -70 256 -73 355 -7 63 42 101 103 202
329 188 419 382 854 392 878 4 10 -9 12 -57 10 l-62 -3 -168 -380 c-93 -209
-172 -379 -176 -378 -4 1 -84 173 -177 382 l-170 381 -64 0 c-48 0 -64 -3 -60
-12z"/>
<path d="M23296 3809 c-39 -46 -32 -102 17 -140 l20 -17 -26 -113 c-15 -63
-27 -120 -27 -126 0 -21 68 -16 79 5 9 18 76 231 92 295 11 44 -8 99 -39 116
-41 22 -88 13 -116 -20z"/>
<path d="M36796 3809 c-14 -17 -26 -42 -26 -55 0 -55 47 -104 100 -104 11 0
34 13 52 29 68 61 29 161 -62 161 -30 0 -43 -6 -64 -31z"/>
</g>
</svg>
